<?xml version="1.0" encoding="UTF-8"?>
<!DOCTYPE svg PUBLIC "-//W3C//DTD SVG 1.1//EN" "http://www.w3.org/Graphics/SVG/1.1/DTD/svg11.dtd">
<svg viewBox="100 -100 90 500" width="40.87" height="120.61" xmlns="http://www.w3.org/2000/svg" version="1.1" style="shape-rendering:geometricPrecision; text-rendering:geometricPrecision; image-rendering:optimizeQuality; fill-rule:evenodd; clip-rule:evenodd" xmlns:xlink="http://www.w3.org/1999/xlink">
<g><path style="opacity:0.982" fill="#00cbc5" d="M 193.5,76.5 C 181.565,82.4686 169.898,88.9686 158.5,96C 170.162,101.498 181.829,106.998 193.5,112.5C 193.5,149.167 193.5,185.833 193.5,222.5C 181.518,214.192 169.518,205.859 157.5,197.5C 158.994,211.79 161.994,225.79 166.5,239.5C 147.066,252.059 127.399,264.392 107.5,276.5C 106.334,259.843 106.167,243.177 107,226.5C 122.832,216.25 138.832,206.25 155,196.5C 155.833,163.828 155.667,131.162 154.5,98.5C 133.167,110.5 111.833,122.5 90.5,134.5C 75.9321,129.147 61.5988,123.313 47.5,117C 83.9201,97.0396 120.42,77.2063 157,57.5C 169.683,63.2545 181.849,69.5878 193.5,76.5 Z"/></g>
<g><path style="opacity:1" fill="#00aba6" d="M 193.5,76.5 C 193.5,88.5 193.5,100.5 193.5,112.5C 181.829,106.998 170.162,101.498 158.5,96C 169.898,88.9686 181.565,82.4686 193.5,76.5 Z"/></g>
<g><path style="opacity:0.973" fill="#000000" d="M 47.5,133.5 C 61.689,138.258 75.689,143.591 89.5,149.5C 90.6666,204.83 90.8333,260.164 90,315.5C 76,306.167 62,296.833 48,287.5C 47.5,236.168 47.3333,184.834 47.5,133.5 Z"/></g>
<g><path style="opacity:0.984" fill="#00aba6" d="M 193.5,222.5 C 184.789,228.528 175.789,234.194 166.5,239.5C 161.994,225.79 158.994,211.79 157.5,197.5C 169.518,205.859 181.518,214.192 193.5,222.5 Z"/></g>
</svg>
